# xmcd
#
# Track frame offsets: 
#        150
#        23585
#        44148
#        67995
#        90507
#        117387
#        150700
#        181627
#        208606
#        236044
#        267878
#        290656
#        314540
#
# Disc length: 4601 seconds
#
# Revision: 4
# Processed by: cddbd v1.5.2PL0 Copyright (c) Steve Scherf et al.
# Submitted via: ExactAudioCopyFreeDBPlugin 1.0
#
DISCID=b511f70d
DTITLE=Diana Krall - A Night In Paris
DYEAR=2002
DGENRE=Jazz
TTITLE0=I Love Being Here With You [Live]
TTITLE1=Let's Fall in Love [Live]
TTITLE2='Deed I Do [Live]
TTITLE3=The Look of Love [Live]
TTITLE4=East of the Sun (and West of the Moon) [Live]
TTITLE5=I've Got You Under My Skin [Live]
TTITLE6=Devil May Care [Live]
TTITLE7='S Wonderful [Live]
TTITLE8=Fly Me to the Moon [Live]
TTITLE9=A Case of You [Live]
TTITLE10=Just the Way You Are [Live]
TTITLE11=Charmed Life [Live]
TTITLE12=Data - Bonus Video - The Look Of Love
EXTD=YEAR: 2002
EXTT0=
EXTT1=
EXTT2=
EXTT3=
EXTT4=
EXTT5=
EXTT6=
EXTT7=
EXTT8=
EXTT9=
EXTT10=
EXTT11=
EXTT12=
PLAYORDER=
